<?xml version="1.0" encoding="UTF-8" standalone="no"?>
<!-- Created with Sodipodi ("http://www.sodipodi.com/") -->
<svg xmlns:inkscape="http://www.inkscape.org/namespaces/inkscape" xmlns:rdf="http://www.w3.org/1999/02/22-rdf-syntax-ns#" xmlns="http://www.w3.org/2000/svg" xmlns:cc="http://creativecommons.org/ns#" xmlns:dc="http://purl.org/dc/elements/1.1/" xmlns:sodipodi="http://sodipodi.sourceforge.net/DTD/sodipodi-0.dtd" xmlns:svg="http://www.w3.org/2000/svg" xmlns:ns1="http://sozi.baierouge.fr" id="svg378" inkscape:version="0.48.3.1 r9886" viewBox="0 0 1063 744.09" sodipodi:version="0.33pre" version="1" y="0" x="0" sodipodi:docname="_svgclean2.svg" xmlns:xlink="http://www.w3.org/1999/xlink">
  <sodipodi:namedview id="base" inkscape:window-x="0" inkscape:window-y="0" inkscape:window-height="645" inkscape:window-maximized="0" inkscape:zoom="0.22425739" showgrid="false" inkscape:current-layer="svg378" inkscape:cx="372.04726" inkscape:cy="217.90986" inkscape:window-width="674"/>
  <g id="g918" transform="translate(.000017110 -.000050073)">
    <rect id="rect552" style="fill-rule:evenodd;stroke-width:1pt;fill:#229e45" sodipodi:fill-cmyk="(0.78 0 0.56 0.38)" transform="matrix(2.4779,0,0,2.4876,-2.0762,-775.36)" height="299.12" width="428.99" y="311.69" x=".83788"/>
    <path id="path554" style="fill-rule:evenodd;stroke-width:1pt;fill:#f8e509" d="m215.33 577.92 180.23-116.52-181.31-116.83-180.83 117.11 181.91 116.24z" sodipodi:nodetypes="ccccc" transform="matrix(2.4779,0,0,2.4876,-2.0762,-775.36)" inkscape:connector-curvature="0" sodipodi:fill-cmyk="(0 0.0775862 0.96 0.03)"/>
    <path id="path557" sodipodi:rx="76.874496" sodipodi:ry="75.827141" style="fill-rule:evenodd;stroke-width:1pt;fill:#2b49a3" sodipodi:type="arc" d="m293.25 149.98c0 41.878-34.418 75.827-76.874 75.827-42.457 0-76.874-33.949-76.874-75.827s34.418-75.827 76.874-75.827c42.457 0 76.874 33.949 76.874 75.827z" transform="matrix(2.4576,0,0,2.4876,5.3779,-1.0393)" sodipodi:fill-cmyk="(0.732759 0.551724 0 0.36)" sodipodi:cy="149.97711" sodipodi:cx="216.37971"/>
    <polygon id="polygon559" style="fill-rule:evenodd;stroke-width:1pt;fill:#ffffef" sodipodi:type="star" sodipodi:sides="5" sodipodi:r1="4.4779305" sodipodi:r2="2.2389653" sodipodi:arg1="0.9736225" sodipodi:arg2="1.601941" transform="matrix(2.2623,0,0,2.3074,-41.991,236.57)" inkscape:randomized="0" d="m 228.54263,107.67979 -2.58769,-1.46504 -2.67388,1.30112 0.5937,-2.91377 -2.06371,-2.14093 2.95462,-0.33577 1.39843,-2.624291 1.23236,2.706261 2.92799,0.51903 -2.19299,2.00832 z" sodipodi:cy="103.97687" sodipodi:cx="226.02466" inkscape:rounded="0" inkscape:flatsided="false" points="228.54 107.68 225.96 106.22 223.28 107.52 223.88 104.6 221.81 102.46 224.77 102.12 226.16 99.501 227.4 102.21 230.32 102.73 228.13 104.74"/>
    <polygon id="polygon560" style="fill-rule:evenodd;stroke-width:1pt;fill:#ffffef" sodipodi:type="star" sodipodi:sides="5" sodipodi:r1="4.4779305" sodipodi:r2="2.2389653" sodipodi:arg1="0.9736225" sodipodi:arg2="1.601941" transform="matrix(2.2623,0,0,2.3074,84.625,268.63)" inkscape:randomized="0" d="m 228.54263,107.67979 -2.58769,-1.46504 -2.67388,1.30112 0.5937,-2.91377 -2.06371,-2.14093 2.95462,-0.33577 1.39843,-2.624291 1.23236,2.706261 2.92799,0.51903 -2.19299,2.00832 z" sodipodi:cy="103.97687" sodipodi:cx="226.02466" inkscape:rounded="0" inkscape:flatsided="false" points="228.54 107.68 225.96 106.22 223.28 107.52 223.88 104.6 221.81 102.46 224.77 102.12 226.16 99.501 227.4 102.21 230.32 102.73 228.13 104.74"/>
    <polygon id="polygon561" style="fill-rule:evenodd;stroke-width:1pt;fill:#ffffef" sodipodi:type="star" sodipodi:sides="5" sodipodi:r1="4.4779305" sodipodi:r2="2.2389653" sodipodi:arg1="0.9736225" sodipodi:arg2="1.601941" transform="matrix(1.9545,0,0,1.9934,100.43,251.24)" inkscape:randomized="0" d="m 228.54263,107.67979 -2.58769,-1.46504 -2.67388,1.30112 0.5937,-2.91377 -2.06371,-2.14093 2.95462,-0.33577 1.39843,-2.624291 1.23236,2.706261 2.92799,0.51903 -2.19299,2.00832 z" sodipodi:cy="103.97687" sodipodi:cx="226.02466" inkscape:rounded="0" inkscape:flatsided="false" points="228.54 107.68 225.96 106.22 223.28 107.52 223.88 104.6 221.81 102.46 224.77 102.12 226.16 99.501 227.4 102.21 230.32 102.73 228.13 104.74"/>
    <polygon id="polygon562" style="fill-rule:evenodd;stroke-width:1pt;fill:#ffffef" sodipodi:type="star" sodipodi:sides="5" sodipodi:r1="4.4779305" sodipodi:r2="2.2389653" sodipodi:arg1="0.9736225" sodipodi:arg2="1.601941" transform="matrix(1.9189,0,0,1.9571,236.41,236.72)" inkscape:randomized="0" d="m 228.54263,107.67979 -2.58769,-1.46504 -2.67388,1.30112 0.5937,-2.91377 -2.06371,-2.14093 2.95462,-0.33577 1.39843,-2.624291 1.23236,2.706261 2.92799,0.51903 -2.19299,2.00832 z" sodipodi:cy="103.97687" sodipodi:cx="226.02466" inkscape:rounded="0" inkscape:flatsided="false" points="228.54 107.68 225.96 106.22 223.28 107.52 223.88 104.6 221.81 102.46 224.77 102.12 226.16 99.501 227.4 102.21 230.32 102.73 228.13 104.74"/>
    <polygon id="polygon563" style="fill-rule:evenodd;stroke-width:1pt;fill:#ffffef" sodipodi:type="star" sodipodi:sides="5" sodipodi:r1="4.4779305" sodipodi:r2="2.2389653" sodipodi:arg1="0.9736225" sodipodi:arg2="1.601941" transform="matrix(2.2623,0,0,2.3074,27.741,160.67)" inkscape:randomized="0" d="m 228.54263,107.67979 -2.58769,-1.46504 -2.67388,1.30112 0.5937,-2.91377 -2.06371,-2.14093 2.95462,-0.33577 1.39843,-2.624291 1.23236,2.706261 2.92799,0.51903 -2.19299,2.00832 z" sodipodi:cy="103.97687" sodipodi:cx="226.02466" inkscape:rounded="0" inkscape:flatsided="false" points="228.54 107.68 225.96 106.22 223.28 107.52 223.88 104.6 221.81 102.46 224.77 102.12 226.16 99.501 227.4 102.21 230.32 102.73 228.13 104.74"/>
    <polygon id="polygon564" style="fill-rule:evenodd;stroke-width:1pt;fill:#ffffef" sodipodi:type="star" sodipodi:sides="5" sodipodi:r1="4.4779305" sodipodi:r2="2.2389653" sodipodi:arg1="0.9736225" sodipodi:arg2="1.601941" transform="matrix(2.2623,0,0,2.3074,-128.15,102.14)" inkscape:randomized="0" d="m 228.54263,107.67979 -2.58769,-1.46504 -2.67388,1.30112 0.5937,-2.91377 -2.06371,-2.14093 2.95462,-0.33577 1.39843,-2.624291 1.23236,2.706261 2.92799,0.51903 -2.19299,2.00832 z" sodipodi:cy="103.97687" sodipodi:cx="226.02466" inkscape:rounded="0" inkscape:flatsided="false" points="228.54 107.68 225.96 106.22 223.28 107.52 223.88 104.6 221.81 102.46 224.77 102.12 226.16 99.501 227.4 102.21 230.32 102.73 228.13 104.74"/>
    <polygon id="polygon565" style="fill-rule:evenodd;stroke-width:1pt;fill:#ffffef" sodipodi:type="star" sodipodi:sides="5" sodipodi:r1="4.4779305" sodipodi:r2="2.2389653" sodipodi:arg1="0.9736225" sodipodi:arg2="1.601941" transform="matrix(2.2623,0,0,2.3074,-109.41,179.99)" inkscape:randomized="0" d="m 228.54263,107.67979 -2.58769,-1.46504 -2.67388,1.30112 0.5937,-2.91377 -2.06371,-2.14093 2.95462,-0.33577 1.39843,-2.624291 1.23236,2.706261 2.92799,0.51903 -2.19299,2.00832 z" sodipodi:cy="103.97687" sodipodi:cx="226.02466" inkscape:rounded="0" inkscape:flatsided="false" points="228.54 107.68 225.96 106.22 223.28 107.52 223.88 104.6 221.81 102.46 224.77 102.12 226.16 99.501 227.4 102.21 230.32 102.73 228.13 104.74"/>
    <polygon id="polygon566" style="fill-rule:evenodd;stroke-width:1pt;fill:#ffffef" sodipodi:type="star" sodipodi:sides="5" sodipodi:r1="4.4779305" sodipodi:r2="2.2389653" sodipodi:arg1="0.9736225" sodipodi:arg2="1.601941" transform="matrix(1.9984,0,0,2.0382,145.45,102.46)" inkscape:randomized="0" d="m 228.54263,107.67979 -2.58769,-1.46504 -2.67388,1.30112 0.5937,-2.91377 -2.06371,-2.14093 2.95462,-0.33577 1.39843,-2.624291 1.23236,2.706261 2.92799,0.51903 -2.19299,2.00832 z" sodipodi:cy="103.97687" sodipodi:cx="226.02466" inkscape:rounded="0" inkscape:flatsided="false" points="228.54 107.68 225.96 106.22 223.28 107.52 223.88 104.6 221.81 102.46 224.77 102.12 226.16 99.501 227.4 102.21 230.32 102.73 228.13 104.74"/>
    <polygon id="polygon567" style="fill-rule:evenodd;stroke-width:1pt;fill:#ffffef" sodipodi:type="star" sodipodi:sides="5" sodipodi:r1="4.4779305" sodipodi:r2="2.2389653" sodipodi:arg1="0.9736225" sodipodi:arg2="1.601941" transform="matrix(1.5739,0,0,1.6053,231.77,199.73)" inkscape:randomized="0" d="m 228.54263,107.67979 -2.58769,-1.46504 -2.67388,1.30112 0.5937,-2.91377 -2.06371,-2.14093 2.95462,-0.33577 1.39843,-2.624291 1.23236,2.706261 2.92799,0.51903 -2.19299,2.00832 z" sodipodi:cy="103.97687" sodipodi:cx="226.02466" inkscape:rounded="0" inkscape:flatsided="false" points="228.54 107.68 225.96 106.22 223.28 107.52 223.88 104.6 221.81 102.46 224.77 102.12 226.16 99.501 227.4 102.21 230.32 102.73 228.13 104.74"/>
    <polygon id="polygon568" style="fill-rule:evenodd;stroke-width:1pt;fill:#ffffef" sodipodi:type="star" sodipodi:sides="5" sodipodi:r1="4.4779305" sodipodi:r2="2.2389653" sodipodi:arg1="0.9736225" sodipodi:arg2="1.601941" transform="matrix(1.5104,0,0,1.5405,35.006,276.67)" inkscape:randomized="0" d="m 228.54263,107.67979 -2.58769,-1.46504 -2.67388,1.30112 0.5937,-2.91377 -2.06371,-2.14093 2.95462,-0.33577 1.39843,-2.624291 1.23236,2.706261 2.92799,0.51903 -2.19299,2.00832 z" sodipodi:cy="103.97687" sodipodi:cx="226.02466" inkscape:rounded="0" inkscape:flatsided="false" points="228.54 107.68 225.96 106.22 223.28 107.52 223.88 104.6 221.81 102.46 224.77 102.12 226.16 99.501 227.4 102.21 230.32 102.73 228.13 104.74"/>
    <polygon id="polygon569" style="fill-rule:evenodd;stroke-width:1pt;fill:#ffffef" sodipodi:type="star" sodipodi:sides="5" sodipodi:r1="4.4779305" sodipodi:r2="2.2389653" sodipodi:arg1="0.9736225" sodipodi:arg2="1.601941" transform="matrix(1.2308,0,0,1.1525,394.75,336.39)" inkscape:randomized="0" d="m 228.54263,107.67979 -2.58769,-1.46504 -2.67388,1.30112 0.5937,-2.91377 -2.06371,-2.14093 2.95462,-0.33577 1.39843,-2.624291 1.23236,2.706261 2.92799,0.51903 -2.19299,2.00832 z" sodipodi:cy="103.97687" sodipodi:cx="226.02466" inkscape:rounded="0" inkscape:flatsided="false" points="228.54 107.68 225.96 106.22 223.28 107.52 223.88 104.6 221.81 102.46 224.77 102.12 226.16 99.501 227.4 102.21 230.32 102.73 228.13 104.74"/>
    <polygon id="polygon570" style="fill-rule:evenodd;stroke-width:1pt;fill:#ffffef" sodipodi:type="star" sodipodi:sides="5" sodipodi:r1="4.4779305" sodipodi:r2="2.2389653" sodipodi:arg1="0.9736225" sodipodi:arg2="1.601941" transform="matrix(1.5104,0,0,1.5405,35.006,276.67)" inkscape:randomized="0" d="m 228.54263,107.67979 -2.58769,-1.46504 -2.67388,1.30112 0.5937,-2.91377 -2.06371,-2.14093 2.95462,-0.33577 1.39843,-2.624291 1.23236,2.706261 2.92799,0.51903 -2.19299,2.00832 z" sodipodi:cy="103.97687" sodipodi:cx="226.02466" inkscape:rounded="0" inkscape:flatsided="false" points="228.54 107.68 225.96 106.22 223.28 107.52 223.88 104.6 221.81 102.46 224.77 102.12 226.16 99.501 227.4 102.21 230.32 102.73 228.13 104.74"/>
    <polygon id="polygon571" style="fill-rule:evenodd;stroke-width:1pt;fill:#ffffef" sodipodi:type="star" sodipodi:sides="5" sodipodi:r1="4.4779305" sodipodi:r2="2.2389653" sodipodi:arg1="0.9736225" sodipodi:arg2="1.601941" transform="matrix(1.5104,0,0,1.5405,35.006,276.67)" inkscape:randomized="0" d="m 228.54263,107.67979 -2.58769,-1.46504 -2.67388,1.30112 0.5937,-2.91377 -2.06371,-2.14093 2.95462,-0.33577 1.39843,-2.624291 1.23236,2.706261 2.92799,0.51903 -2.19299,2.00832 z" sodipodi:cy="103.97687" sodipodi:cx="226.02466" inkscape:rounded="0" inkscape:flatsided="false" points="228.54 107.68 225.96 106.22 223.28 107.52 223.88 104.6 221.81 102.46 224.77 102.12 226.16 99.501 227.4 102.21 230.32 102.73 228.13 104.74"/>
    <polygon id="polygon572" style="fill-rule:evenodd;stroke-width:1pt;fill:#ffffef" sodipodi:type="star" sodipodi:sides="5" sodipodi:r1="4.4779305" sodipodi:r2="2.2389653" sodipodi:arg1="0.9736225" sodipodi:arg2="1.601941" transform="matrix(1.5104,0,0,1.5405,97.044,276.67)" inkscape:randomized="0" d="m 228.54263,107.67979 -2.58769,-1.46504 -2.67388,1.30112 0.5937,-2.91377 -2.06371,-2.14093 2.95462,-0.33577 1.39843,-2.624291 1.23236,2.706261 2.92799,0.51903 -2.19299,2.00832 z" sodipodi:cy="103.97687" sodipodi:cx="226.02466" inkscape:rounded="0" inkscape:flatsided="false" points="228.54 107.68 225.96 106.22 223.28 107.52 223.88 104.6 221.81 102.46 224.77 102.12 226.16 99.501 227.4 102.21 230.32 102.73 228.13 104.74"/>
    <polygon id="polygon573" style="fill-rule:evenodd;stroke-width:1pt;fill:#ffffef" sodipodi:type="star" sodipodi:sides="5" sodipodi:r1="4.4779305" sodipodi:r2="2.2389653" sodipodi:arg1="0.9736225" sodipodi:arg2="1.601941" transform="matrix(1.5104,0,0,1.5405,89.335,297.31)" inkscape:randomized="0" d="m 228.54263,107.67979 -2.58769,-1.46504 -2.67388,1.30112 0.5937,-2.91377 -2.06371,-2.14093 2.95462,-0.33577 1.39843,-2.624291 1.23236,2.706261 2.92799,0.51903 -2.19299,2.00832 z" sodipodi:cy="103.97687" sodipodi:cx="226.02466" inkscape:rounded="0" inkscape:flatsided="false" points="228.54 107.68 225.96 106.22 223.28 107.52 223.88 104.6 221.81 102.46 224.77 102.12 226.16 99.501 227.4 102.21 230.32 102.73 228.13 104.74"/>
    <polygon id="polygon574" style="fill-rule:evenodd;stroke-width:1pt;fill:#ffffef" sodipodi:type="star" sodipodi:sides="5" sodipodi:r1="4.4779305" sodipodi:r2="2.2389653" sodipodi:arg1="0.9736225" sodipodi:arg2="1.601941" transform="matrix(1.5104,0,0,1.5405,218.15,259.73)" inkscape:randomized="0" d="m 228.54263,107.67979 -2.58769,-1.46504 -2.67388,1.30112 0.5937,-2.91377 -2.06371,-2.14093 2.95462,-0.33577 1.39843,-2.624291 1.23236,2.706261 2.92799,0.51903 -2.19299,2.00832 z" sodipodi:cy="103.97687" sodipodi:cx="226.02466" inkscape:rounded="0" inkscape:flatsided="false" points="228.54 107.68 225.96 106.22 223.28 107.52 223.88 104.6 221.81 102.46 224.77 102.12 226.16 99.501 227.4 102.21 230.32 102.73 228.13 104.74"/>
    <polygon id="polygon575" style="fill-rule:evenodd;stroke-width:1pt;fill:#ffffef" sodipodi:type="star" sodipodi:sides="5" sodipodi:r1="4.4779305" sodipodi:r2="2.2389653" sodipodi:arg1="0.9736225" sodipodi:arg2="1.601941" transform="matrix(1.5104,0,0,1.5405,180.35,259.72)" inkscape:randomized="0" d="m 228.54263,107.67979 -2.58769,-1.46504 -2.67388,1.30112 0.5937,-2.91377 -2.06371,-2.14093 2.95462,-0.33577 1.39843,-2.624291 1.23236,2.706261 2.92799,0.51903 -2.19299,2.00832 z" sodipodi:cy="103.97687" sodipodi:cx="226.02466" inkscape:rounded="0" inkscape:flatsided="false" points="228.54 107.68 225.96 106.22 223.28 107.52 223.88 104.6 221.81 102.46 224.77 102.12 226.16 99.501 227.4 102.21 230.32 102.73 228.13 104.74"/>
    <polygon id="polygon576" style="fill-rule:evenodd;stroke-width:1pt;fill:#ffffef" sodipodi:type="star" sodipodi:sides="5" sodipodi:r1="4.4779305" sodipodi:r2="2.2389653" sodipodi:arg1="0.9736225" sodipodi:arg2="1.601941" transform="matrix(.94647 0 0 .96532 206.71 308.48)" inkscape:randomized="0" d="m 228.54263,107.67979 -2.58769,-1.46504 -2.67388,1.30112 0.5937,-2.91377 -2.06371,-2.14093 2.95462,-0.33577 1.39843,-2.624291 1.23236,2.706261 2.92799,0.51903 -2.19299,2.00832 z" sodipodi:cy="103.97687" sodipodi:cx="226.02466" inkscape:rounded="0" inkscape:flatsided="false" points="228.54 107.68 225.96 106.22 223.28 107.52 223.88 104.6 221.81 102.46 224.77 102.12 226.16 99.501 227.4 102.21 230.32 102.73 228.13 104.74"/>
    <polygon id="polygon577" style="fill-rule:evenodd;stroke-width:1pt;fill:#ffffef" sodipodi:type="star" sodipodi:sides="5" sodipodi:r1="4.4779305" sodipodi:r2="2.2389653" sodipodi:arg1="0.9736225" sodipodi:arg2="1.601941" transform="matrix(1.5104,0,0,1.5405,326.05,310.94)" inkscape:randomized="0" d="m 228.54263,107.67979 -2.58769,-1.46504 -2.67388,1.30112 0.5937,-2.91377 -2.06371,-2.14093 2.95462,-0.33577 1.39843,-2.624291 1.23236,2.706261 2.92799,0.51903 -2.19299,2.00832 z" sodipodi:cy="103.97687" sodipodi:cx="226.02466" inkscape:rounded="0" inkscape:flatsided="false" points="228.54 107.68 225.96 106.22 223.28 107.52 223.88 104.6 221.81 102.46 224.77 102.12 226.16 99.501 227.4 102.21 230.32 102.73 228.13 104.74"/>
    <polygon id="polygon578" style="fill-rule:evenodd;stroke-width:1pt;fill:#ffffef" sodipodi:type="star" sodipodi:sides="5" sodipodi:r1="4.4779305" sodipodi:r2="2.2389653" sodipodi:arg1="0.9736225" sodipodi:arg2="1.601941" transform="matrix(1.2512,0,0,1.2793,353.82,343.19)" inkscape:randomized="0" d="m 228.54263,107.67979 -2.58769,-1.46504 -2.67388,1.30112 0.5937,-2.91377 -2.06371,-2.14093 2.95462,-0.33577 1.39843,-2.624291 1.23236,2.706261 2.92799,0.51903 -2.19299,2.00832 z" sodipodi:cy="103.97687" sodipodi:cx="226.02466" inkscape:rounded="0" inkscape:flatsided="false" points="228.54 107.68 225.96 106.22 223.28 107.52 223.88 104.6 221.81 102.46 224.77 102.12 226.16 99.501 227.4 102.21 230.32 102.73 228.13 104.74"/>
    <polygon id="polygon579" style="fill-rule:evenodd;stroke-width:1pt;fill:#ffffef" sodipodi:type="star" sodipodi:sides="5" sodipodi:r1="4.4779305" sodipodi:r2="2.2389653" sodipodi:arg1="0.9736225" sodipodi:arg2="1.601941" transform="matrix(1.1653,0,0,1.1896,388.29,352.49)" inkscape:randomized="0" d="m 228.54263,107.67979 -2.58769,-1.46504 -2.67388,1.30112 0.5937,-2.91377 -2.06371,-2.14093 2.95462,-0.33577 1.39843,-2.624291 1.23236,2.706261 2.92799,0.51903 -2.19299,2.00832 z" sodipodi:cy="103.97687" sodipodi:cx="226.02466" inkscape:rounded="0" inkscape:flatsided="false" points="228.54 107.68 225.96 106.22 223.28 107.52 223.88 104.6 221.81 102.46 224.77 102.12 226.16 99.501 227.4 102.21 230.32 102.73 228.13 104.74"/>
    <polygon id="polygon580" style="fill-rule:evenodd;stroke-width:1pt;fill:#ffffef" sodipodi:type="star" sodipodi:sides="5" sodipodi:r1="4.4779305" sodipodi:r2="2.2389653" sodipodi:arg1="0.9736225" sodipodi:arg2="1.601941" transform="matrix(1.1224,0,0,1.1447,440.74,320.1)" inkscape:randomized="0" d="m 228.54263,107.67979 -2.58769,-1.46504 -2.67388,1.30112 0.5937,-2.91377 -2.06371,-2.14093 2.95462,-0.33577 1.39843,-2.624291 1.23236,2.706261 2.92799,0.51903 -2.19299,2.00832 z" sodipodi:cy="103.97687" sodipodi:cx="226.02466" inkscape:rounded="0" inkscape:flatsided="false" points="228.54 107.68 225.96 106.22 223.28 107.52 223.88 104.6 221.81 102.46 224.77 102.12 226.16 99.501 227.4 102.21 230.32 102.73 228.13 104.74"/>
    <polygon id="polygon581" style="fill-rule:evenodd;stroke-width:1pt;fill:#ffffef" sodipodi:type="star" sodipodi:sides="5" sodipodi:r1="4.4779305" sodipodi:r2="2.2389653" sodipodi:arg1="0.9736225" sodipodi:arg2="1.601941" transform="matrix(1.4658,0,0,1.4139,304.39,349.7)" inkscape:randomized="0" d="m 228.54263,107.67979 -2.58769,-1.46504 -2.67388,1.30112 0.5937,-2.91377 -2.06371,-2.14093 2.95462,-0.33577 1.39843,-2.624291 1.23236,2.706261 2.92799,0.51903 -2.19299,2.00832 z" sodipodi:cy="103.97687" sodipodi:cx="226.02466" inkscape:rounded="0" inkscape:flatsided="false" points="228.54 107.68 225.96 106.22 223.28 107.52 223.88 104.6 221.81 102.46 224.77 102.12 226.16 99.501 227.4 102.21 230.32 102.73 228.13 104.74"/>
    <polygon id="polygon582" style="fill-rule:evenodd;stroke-width:1pt;fill:#ffffef" sodipodi:type="star" sodipodi:sides="5" sodipodi:r1="4.4779305" sodipodi:r2="2.2389653" sodipodi:arg1="0.9736225" sodipodi:arg2="1.601941" transform="matrix(1.337,0,0,1.4139,334.05,366.65)" inkscape:randomized="0" d="m 228.54263,107.67979 -2.58769,-1.46504 -2.67388,1.30112 0.5937,-2.91377 -2.06371,-2.14093 2.95462,-0.33577 1.39843,-2.624291 1.23236,2.706261 2.92799,0.51903 -2.19299,2.00832 z" sodipodi:cy="103.97687" sodipodi:cx="226.02466" inkscape:rounded="0" inkscape:flatsided="false" points="228.54 107.68 225.96 106.22 223.28 107.52 223.88 104.6 221.81 102.46 224.77 102.12 226.16 99.501 227.4 102.21 230.32 102.73 228.13 104.74"/>
    <polygon id="polygon583" style="fill-rule:evenodd;stroke-width:1pt;fill:#ffffef" sodipodi:type="star" sodipodi:sides="5" sodipodi:r1="4.4779305" sodipodi:r2="2.2389653" sodipodi:arg1="0.9736225" sodipodi:arg2="1.601941" transform="matrix(1.1224,0,0,1.1447,354.51,357.31)" inkscape:randomized="0" d="m 228.54263,107.67979 -2.58769,-1.46504 -2.67388,1.30112 0.5937,-2.91377 -2.06371,-2.14093 2.95462,-0.33577 1.39843,-2.624291 1.23236,2.706261 2.92799,0.51903 -2.19299,2.00832 z" sodipodi:cy="103.97687" sodipodi:cx="226.02466" inkscape:rounded="0" inkscape:flatsided="false" points="228.54 107.68 225.96 106.22 223.28 107.52 223.88 104.6 221.81 102.46 224.77 102.12 226.16 99.501 227.4 102.21 230.32 102.73 228.13 104.74"/>
    <polygon id="polygon584" style="fill-rule:evenodd;stroke-width:1pt;fill:#ffffef" sodipodi:type="star" sodipodi:sides="5" sodipodi:r1="4.4779305" sodipodi:r2="2.2389653" sodipodi:arg1="0.9736225" sodipodi:arg2="1.601941" transform="matrix(1.1224,0,0,1.1447,327.71,357.32)" inkscape:randomized="0" d="m 228.54263,107.67979 -2.58769,-1.46504 -2.67388,1.30112 0.5937,-2.91377 -2.06371,-2.14093 2.95462,-0.33577 1.39843,-2.624291 1.23236,2.706261 2.92799,0.51903 -2.19299,2.00832 z" sodipodi:cy="103.97687" sodipodi:cx="226.02466" inkscape:rounded="0" inkscape:flatsided="false" points="228.54 107.68 225.96 106.22 223.28 107.52 223.88 104.6 221.81 102.46 224.77 102.12 226.16 99.501 227.4 102.21 230.32 102.73 228.13 104.74"/>
    <polygon id="polygon585" style="fill-rule:evenodd;stroke-width:1pt;fill:#ffffef" sodipodi:type="star" sodipodi:sides="5" sodipodi:r1="4.4779305" sodipodi:r2="2.2389653" sodipodi:arg1="0.9736225" sodipodi:arg2="1.601941" transform="matrix(1.1224,0,0,1.1447,282.2,317.52)" inkscape:randomized="0" d="m 228.54263,107.67979 -2.58769,-1.46504 -2.67388,1.30112 0.5937,-2.91377 -2.06371,-2.14093 2.95462,-0.33577 1.39843,-2.624291 1.23236,2.706261 2.92799,0.51903 -2.19299,2.00832 z" sodipodi:cy="103.97687" sodipodi:cx="226.02466" inkscape:rounded="0" inkscape:flatsided="false" points="228.54 107.68 225.96 106.22 223.28 107.52 223.88 104.6 221.81 102.46 224.77 102.12 226.16 99.501 227.4 102.21 230.32 102.73 228.13 104.74"/>
    <polygon id="polygon586" style="fill-rule:evenodd;stroke-width:1pt;fill:#ffffef" sodipodi:type="star" sodipodi:sides="5" sodipodi:r1="4.4779305" sodipodi:r2="2.2389653" sodipodi:arg1="0.9736225" sodipodi:arg2="1.601941" transform="matrix(.95068 0 0 .96961 326.51 417.48)" inkscape:randomized="0" d="m 228.54263,107.67979 -2.58769,-1.46504 -2.67388,1.30112 0.5937,-2.91377 -2.06371,-2.14093 2.95462,-0.33577 1.39843,-2.624291 1.23236,2.706261 2.92799,0.51903 -2.19299,2.00832 z" sodipodi:cy="103.97687" sodipodi:cx="226.02466" inkscape:rounded="0" inkscape:flatsided="false" points="228.54 107.68 225.96 106.22 223.28 107.52 223.88 104.6 221.81 102.46 224.77 102.12 226.16 99.501 227.4 102.21 230.32 102.73 228.13 104.74"/>
    <polygon id="polygon587" style="fill-rule:evenodd;stroke-width:1pt;fill:#ffffef" sodipodi:type="star" sodipodi:sides="5" sodipodi:r1="4.4779305" sodipodi:r2="2.2389653" sodipodi:arg1="0.9736225" sodipodi:arg2="1.601941" transform="matrix(2.2623,0,0,2.3074,-41.989,142.25)" inkscape:randomized="0" d="m 228.54263,107.67979 -2.58769,-1.46504 -2.67388,1.30112 0.5937,-2.91377 -2.06371,-2.14093 2.95462,-0.33577 1.39843,-2.624291 1.23236,2.706261 2.92799,0.51903 -2.19299,2.00832 z" sodipodi:cy="103.97687" sodipodi:cx="226.02466" inkscape:rounded="0" inkscape:flatsided="false" points="228.54 107.68 225.96 106.22 223.28 107.52 223.88 104.6 221.81 102.46 224.77 102.12 226.16 99.501 227.4 102.21 230.32 102.73 228.13 104.74"/>
    <path id="path726" style="fill-rule:evenodd;stroke-width:1pt;stroke-opacity:.50314;fill:#ffffff" d="m288.84 488.53c1.16-3.03 2.66-7.59 3.46-11.78-40.5-35.44-85.64-53.59-142.69-49.85-2.05 3.9-3.68 7.99-5.06 12.41 67.59-6.42 117.13 23.39 144.29 49.22z" sodipodi:nodetypes="ccccc" inkscape:connector-curvature="0" transform="matrix(2.4779,0,0,2.4876,-2.0762,-775.36)"/>
    <path id="path790" inkscape:connector-curvature="0" style="stroke-width:1pt;stroke-opacity:.50196;fill:#309e3a" transform="matrix(2.4779,0,0,2.4876,-2.0762,-775.36)" d="m270.64 468.61 1.44 0.78c-0.22 0.51-0.28 0.96-0.18 1.34 0.1 0.39 0.37 0.72 0.8 1.01 0.44 0.3 0.85 0.44 1.2 0.4 0.36-0.03 0.63-0.18 0.8-0.43 0.11-0.17 0.15-0.34 0.13-0.52-0.01-0.18-0.11-0.39-0.29-0.64-0.13-0.17-0.43-0.52-0.92-1.06-0.62-0.69-0.99-1.27-1.11-1.75-0.17-0.66-0.07-1.27 0.31-1.82 0.23-0.35 0.56-0.61 0.96-0.78 0.41-0.17 0.86-0.21 1.34-0.12s0.99 0.32 1.52 0.68c0.87 0.59 1.4 1.22 1.57 1.9 0.19 0.67 0.07 1.34-0.33 1.99l-1.44-0.89c0.18-0.39 0.22-0.73 0.13-1.02s-0.33-0.57-0.72-0.83c-0.41-0.28-0.78-0.41-1.12-0.4-0.23 0.01-0.39 0.1-0.52 0.28-0.11 0.17-0.13 0.35-0.07 0.56 0.07 0.27 0.4 0.71 0.97 1.33s0.96 1.13 1.16 1.52c0.22 0.39 0.31 0.8 0.29 1.22-0.01 0.42-0.17 0.85-0.46 1.29-0.27 0.39-0.63 0.69-1.09 0.89-0.45 0.19-0.93 0.24-1.45 0.14-0.52-0.11-1.08-0.36-1.68-0.77-0.87-0.59-1.41-1.25-1.6-1.97-0.2-0.72-0.08-1.5 0.36-2.33z"/>
    <path id="path791" inkscape:connector-curvature="0" style="stroke-width:1pt;stroke-opacity:.50196;fill:#309e3a" transform="matrix(2.4779,0,0,2.4876,-2.0762,-775.36)" d="m263.78 464.12 1.47 0.73c-0.2 0.51-0.25 0.97-0.13 1.34 0.13 0.38 0.4 0.71 0.84 0.97 0.46 0.29 0.87 0.41 1.22 0.36 0.36-0.05 0.62-0.21 0.78-0.47 0.1-0.17 0.14-0.34 0.11-0.52-0.02-0.18-0.13-0.39-0.32-0.63-0.13-0.16-0.45-0.5-0.95-1.02-0.65-0.66-1.05-1.23-1.19-1.7-0.19-0.66-0.11-1.27 0.23-1.83 0.23-0.36 0.54-0.64 0.94-0.82 0.4-0.19 0.84-0.25 1.33-0.18 0.49 0.08 1.01 0.29 1.55 0.62 0.89 0.55 1.44 1.17 1.65 1.83 0.21 0.67 0.12 1.34-0.26 2.01l-1.47-0.83c0.16-0.4 0.19-0.74 0.09-1.03-0.1-0.28-0.35-0.55-0.76-0.8-0.41-0.26-0.79-0.37-1.13-0.35-0.22 0.02-0.39 0.12-0.5 0.3-0.11 0.17-0.13 0.36-0.06 0.56 0.09 0.27 0.43 0.7 1.02 1.29 0.6 0.6 1.01 1.09 1.23 1.47 0.23 0.38 0.34 0.79 0.34 1.21s-0.14 0.85-0.41 1.31c-0.26 0.4-0.61 0.71-1.05 0.93-0.45 0.21-0.93 0.28-1.45 0.2-0.52-0.09-1.09-0.32-1.7-0.7-0.9-0.56-1.46-1.19-1.69-1.9-0.22-0.72-0.13-1.5 0.27-2.35z"/>
    <path id="path792" inkscape:connector-curvature="0" style="stroke-width:1pt;stroke-opacity:.50196;fill:#309e3a" transform="matrix(2.4779,0,0,2.4876,-2.0762,-775.36)" d="m255.28 461.85 4.35-7.12 5.29 3.22-0.74 1.21-3.84-2.35-0.97 1.58 3.58 2.19-0.73 1.2-3.58-2.19-1.18 1.94 3.98 2.43-0.74 1.2-5.42-3.31z"/>
    <path id="path795" inkscape:connector-curvature="0" style="stroke-width:1pt;stroke-opacity:.50196;fill:#309e3a" transform="matrix(2.4779,0,0,2.4876,-2.0762,-775.36)" d="m242.92 451.74 0.64-1.26 3.23 1.67-1.52 2.95c-0.47 0.15-1.07 0.18-1.79 0.1-0.71-0.07-1.37-0.27-1.98-0.58-0.77-0.4-1.37-0.91-1.78-1.53-0.4-0.63-0.6-1.32-0.58-2.07 0.02-0.76 0.22-1.49 0.58-2.2 0.4-0.78 0.92-1.38 1.55-1.81 0.63-0.44 1.35-0.65 2.14-0.65 0.6 0 1.25 0.18 1.96 0.54 0.93 0.48 1.55 1.04 1.86 1.7 0.32 0.65 0.38 1.35 0.18 2.11l-1.63-0.49c0.08-0.41 0.03-0.8-0.15-1.16s-0.48-0.65-0.91-0.88c-0.66-0.33-1.29-0.4-1.89-0.18s-1.11 0.73-1.53 1.55c-0.45 0.88-0.6 1.64-0.44 2.29 0.17 0.64 0.57 1.12 1.21 1.45 0.31 0.16 0.65 0.26 1.03 0.3s0.73 0.03 1.05-0.03l0.48-0.94-1.71-0.88z"/>
    <path id="path804" inkscape:connector-curvature="0" style="stroke-width:1pt;stroke-opacity:.50196;fill:#309e3a" transform="matrix(2.4779,0,0,2.4876,-2.0762,-775.36)" d="m188.96 438.41 1.22-8.26 2.5 0.37 0.67 5.85 2.3-5.41 2.51 0.36-1.22 8.26-1.55-0.22 0.96-6.51-2.6 6.26-1.6-0.23-0.68-6.74-0.96 6.5-1.55-0.23z"/>
    <path id="path805" inkscape:connector-curvature="0" style="stroke-width:1pt;stroke-opacity:.50196;fill:#309e3a" transform="matrix(2.4779,0,0,2.4876,-2.0762,-775.36)" d="m180.53 437.43 0.78-8.31 6.16 0.58-0.13 1.41-4.48-0.42-0.18 1.84 4.18 0.39-0.13 1.4-4.18-0.39-0.21 2.26 4.64 0.44-0.13 1.4-6.32-0.6z"/>
    <g id="g812" transform="matrix(2.0303,-1.2996,1.2945,2.0383,-138.14,186.16)">
      <path id="path810" style="stroke-width:1pt;stroke-opacity:.50196;fill:#309e3a" inkscape:connector-curvature="0" d="m154.79 154.48c0.49-0.73 1.01-1.26 1.56-1.61 0.41-0.25 0.85-0.43 1.32-0.53 0.48-0.09 0.93-0.1 1.36-0.01 0.57 0.11 1.14 0.36 1.72 0.75 1.05 0.71 1.67 1.6 1.85 2.68 0.2 1.08-0.1 2.2-0.88 3.35s-1.7 1.84-2.77 2.07c-1.06 0.22-2.11-0.02-3.16-0.73s-1.68-1.6-1.87-2.67c-0.18-1.07 0.11-2.17 0.87-3.3z"/>
      <path id="path811" style="stroke-width:1pt;stroke-opacity:.50196;fill:#f7ffff" inkscape:connector-curvature="0" d="m156.31 155.43c-0.55 0.81-0.78 1.54-0.69 2.21s0.43 1.2 1 1.58c0.57 0.39 1.18 0.5 1.82 0.34 0.65-0.17 1.26-0.66 1.82-1.49 0.55-0.81 0.78-1.54 0.69-2.19-0.08-0.64-0.42-1.16-1.01-1.56-0.6-0.4-1.21-0.52-1.85-0.36s-1.23 0.65-1.78 1.47z"/>
    </g>
    <g id="g815" transform="matrix(2.01,-1.3311,1.3259,2.0178,-138.53,194.41)">
      <path id="path808" style="stroke-width:1pt;stroke-opacity:.50196;fill:#309e3a" inkscape:connector-curvature="0" d="m160.44 163.42 4.82-7.11 3.02 2.04c0.76 0.52 1.27 0.95 1.52 1.32 0.26 0.36 0.39 0.77 0.37 1.24-0.01 0.47-0.16 0.91-0.45 1.33-0.36 0.53-0.81 0.87-1.36 1-0.55 0.14-1.17 0.04-1.85-0.29 0.19 0.39 0.31 0.76 0.36 1.11 0.06 0.36 0.07 0.93 0.04 1.71l-0.07 1.98-1.72-1.16 0.01-2.25c0.01-0.81-0.01-1.32-0.05-1.56s-0.12-0.43-0.23-0.59c-0.12-0.15-0.34-0.35-0.67-0.57l-0.29-0.2-2.01 2.97-1.44-0.97z"/>
      <path id="path809" style="stroke-width:1pt;stroke-opacity:.50196;fill:#ffffff" inkscape:connector-curvature="0" d="m164.66 160.29 1.06 0.72c0.69 0.46 1.14 0.73 1.35 0.78 0.21 0.06 0.41 0.05 0.61-0.03 0.19-0.07 0.36-0.22 0.5-0.43 0.16-0.24 0.23-0.48 0.2-0.71s-0.14-0.45-0.35-0.64c-0.11-0.1-0.45-0.34-1.03-0.74l-1.12-0.76-1.22 1.81z"/>
    </g>
    <g id="g818" transform="matrix(2.0601,-1.2515,1.2466,2.0682,-131.84,173.33)">
      <path id="path806" style="stroke-width:1pt;stroke-opacity:.50196;fill:#309e3a" inkscape:connector-curvature="0" d="m172.42 161.16 2.63 1.77c0.59 0.4 1.01 0.75 1.26 1.05 0.33 0.41 0.55 0.87 0.63 1.39 0.09 0.51 0.05 1.05-0.1 1.61s-0.45 1.17-0.9 1.84c-0.4 0.58-0.82 1.04-1.25 1.36-0.53 0.4-1.06 0.65-1.61 0.74-0.41 0.08-0.88 0.04-1.39-0.11-0.39-0.11-0.85-0.35-1.38-0.71l-2.7-1.83 4.81-7.11z"/>
      <path id="path807" style="stroke-width:1pt;stroke-opacity:.50196;fill:#ffffff" inkscape:connector-curvature="0" d="m173.05 163.33-3.19 4.71 1.07 0.73c0.4 0.27 0.71 0.45 0.91 0.52 0.28 0.1 0.54 0.13 0.78 0.09 0.25-0.03 0.53-0.17 0.84-0.42 0.32-0.26 0.66-0.66 1.03-1.21s0.61-1.01 0.71-1.37c0.11-0.36 0.13-0.68 0.06-0.96-0.06-0.28-0.21-0.54-0.44-0.78-0.16-0.19-0.54-0.48-1.13-0.87l-0.64-0.44z"/>
    </g>
    <g id="g824" transform="matrix(2.2543 -.84957 .84625 2.2631 -87.998 66.936)">
      <path id="path800" style="stroke-width:1pt;stroke-opacity:.50196;fill:#309e3a" inkscape:connector-curvature="0" d="m200.75 190.69 4.81-7.11 2.31 1.56c0.87 0.59 1.42 1.01 1.64 1.26 0.33 0.38 0.52 0.85 0.55 1.39s-0.14 1.1-0.53 1.66c-0.29 0.44-0.62 0.75-0.98 0.95-0.36 0.19-0.72 0.28-1.08 0.29-0.36 0-0.68-0.05-0.97-0.17-0.39-0.16-0.91-0.46-1.56-0.9l-0.94-0.64-1.81 2.68-1.44-0.97z"/>
      <path id="path801" style="stroke-width:1pt;stroke-opacity:.50196;fill:#ffffff" inkscape:connector-curvature="0" d="m206.19 185.75-1.37 2.02 0.79 0.53c0.57 0.39 0.97 0.61 1.21 0.66 0.24 0.06 0.47 0.04 0.68-0.05 0.22-0.08 0.4-0.23 0.54-0.44 0.18-0.26 0.24-0.52 0.21-0.79-0.04-0.27-0.16-0.51-0.37-0.71-0.15-0.15-0.48-0.4-1-0.75l-0.69-0.47z"/>
    </g>
    <g id="g827" transform="matrix(2.3294 -.61208 .60969 2.3386 -56.96 4.1977)">
      <path id="path798" style="stroke-width:1pt;stroke-opacity:.50196;fill:#309e3a" inkscape:connector-curvature="0" d="m207.39 195.18 4.81-7.11 3.02 2.04c0.76 0.52 1.27 0.95 1.53 1.32 0.26 0.36 0.38 0.77 0.37 1.24-0.02 0.46-0.17 0.91-0.45 1.33-0.36 0.53-0.82 0.87-1.37 1-0.55 0.14-1.16 0.04-1.85-0.29 0.19 0.39 0.31 0.76 0.36 1.11 0.06 0.36 0.07 0.93 0.04 1.71l-0.07 1.98-1.72-1.16 0.01-2.25c0.01-0.81-0.01-1.32-0.05-1.56s-0.11-0.43-0.23-0.59c-0.11-0.16-0.34-0.35-0.67-0.57l-0.29-0.2-2.01 2.97-1.43-0.97z"/>
      <path id="path799" style="stroke-width:1pt;stroke-opacity:.50196;fill:#ffffff" inkscape:connector-curvature="0" d="m211.6 192.05 1.06 0.72c0.69 0.46 1.14 0.73 1.35 0.78 0.21 0.06 0.42 0.05 0.61-0.03 0.19-0.07 0.36-0.22 0.51-0.43 0.16-0.24 0.22-0.48 0.19-0.71-0.02-0.23-0.14-0.45-0.34-0.65-0.11-0.09-0.46-0.33-1.04-0.73l-1.12-0.76-1.22 1.81z"/>
    </g>
    <g id="g830" transform="matrix(2.3055 -.69754 .69482 2.3145 -66.451 29.668)">
      <path id="path796" style="stroke-width:1pt;stroke-opacity:.50196;fill:#309e3a" inkscape:connector-curvature="0" d="m216.64 196.32c0.5-0.72 1.02-1.26 1.56-1.6 0.41-0.25 0.85-0.43 1.32-0.53 0.48-0.1 0.93-0.1 1.36-0.02 0.57 0.11 1.14 0.37 1.72 0.76 1.05 0.71 1.67 1.6 1.86 2.67 0.19 1.08-0.11 2.2-0.89 3.36-0.78 1.15-1.7 1.84-2.76 2.06-1.07 0.23-2.12-0.01-3.16-0.72-1.06-0.72-1.69-1.61-1.87-2.67-0.19-1.07 0.1-2.17 0.86-3.31z"/>
      <path id="path797" style="stroke-width:1pt;stroke-opacity:.50196;fill:#ffffff" inkscape:connector-curvature="0" d="m218.16 197.28c-0.55 0.8-0.78 1.54-0.68 2.21 0.09 0.66 0.42 1.19 0.99 1.58s1.18 0.5 1.83 0.33c0.64-0.16 1.25-0.66 1.81-1.48 0.55-0.82 0.78-1.54 0.69-2.19-0.08-0.64-0.42-1.16-1.01-1.56s-1.21-0.52-1.85-0.36c-0.63 0.16-1.23 0.65-1.78 1.47z"/>
    </g>
    <g id="g833" transform="matrix(2.3913 -.28318 .28207 2.4007 .41501 -78.357)">
      <path id="path793" style="stroke-width:1pt;stroke-opacity:.50196;fill:#309e3a" inkscape:connector-curvature="0" d="m230.03 210.5 4.81-7.12 3.02 2.05c0.76 0.51 1.27 0.95 1.53 1.31s0.38 0.78 0.37 1.24c-0.02 0.47-0.17 0.91-0.45 1.34-0.36 0.53-0.82 0.86-1.37 1s-1.16 0.04-1.85-0.3c0.19 0.4 0.31 0.77 0.36 1.12 0.06 0.36 0.07 0.92 0.04 1.71l-0.07 1.97-1.72-1.16 0.01-2.25c0.01-0.8-0.01-1.32-0.05-1.55-0.04-0.24-0.11-0.44-0.23-0.59-0.11-0.16-0.34-0.35-0.67-0.57l-0.29-0.2-2.01 2.97-1.43-0.97z"/>
      <path id="path794" style="stroke-width:1pt;stroke-opacity:.50196;fill:#ffffff" inkscape:connector-curvature="0" d="m234.24 207.36 1.06 0.72c0.69 0.47 1.14 0.73 1.35 0.79s0.42 0.05 0.61-0.03 0.36-0.22 0.51-0.44c0.16-0.23 0.22-0.47 0.19-0.7-0.02-0.24-0.14-0.45-0.34-0.65-0.11-0.09-0.46-0.34-1.04-0.73l-1.12-0.76-1.22 1.8z"/>
    </g>
    <g id="g836" transform="matrix(2.4079,0,0,2.4173,62.558,-144.38)">
      <path id="path788" style="stroke-width:1pt;stroke-opacity:.50196;fill:#309e3a" inkscape:connector-curvature="0" d="m259.17 225.1c0.49-0.73 1.01-1.26 1.56-1.61 0.41-0.25 0.85-0.43 1.32-0.53 0.48-0.1 0.93-0.1 1.36-0.02 0.57 0.12 1.14 0.37 1.72 0.76 1.05 0.71 1.67 1.6 1.86 2.68 0.19 1.07-0.11 2.19-0.89 3.35-0.78 1.15-1.7 1.84-2.76 2.07-1.07 0.22-2.12-0.02-3.17-0.73s-1.68-1.61-1.87-2.67c-0.18-1.07 0.11-2.17 0.87-3.3z"/>
      <path id="path789" style="stroke-width:1pt;stroke-opacity:.50196;fill:#ffffff" inkscape:connector-curvature="0" d="m260.69 226.05c-0.55 0.8-0.78 1.54-0.69 2.21 0.1 0.67 0.43 1.19 1 1.58s1.18 0.5 1.82 0.34c0.65-0.17 1.26-0.66 1.82-1.49 0.55-0.81 0.78-1.54 0.69-2.19-0.09-0.64-0.42-1.16-1.01-1.56-0.6-0.4-1.21-0.52-1.85-0.36s-1.23 0.65-1.78 1.47z"/>
    </g>
    <path id="path872" inkscape:connector-curvature="0" style="stroke-width:1pt;stroke-opacity:.50196;fill:#309e3a" transform="matrix(2.4779,0,0,2.4876,-2.0762,-775.36)" d="m203.63 440.12 1.34-5.86 4.35 1-0.23 0.99-3.16-0.73-0.3 1.3 2.94 0.68-0.23 0.98-2.94-0.67-0.36 1.59 3.27 0.76-0.23 0.98-4.45-1.02z"/>
  </g>
  <metadata id="metadata69">
    <rdf:RDF>
      <cc:Work>
        <dc:format>image/svg+xml</dc:format>
        <dc:type rdf:resource="http://purl.org/dc/dcmitype/StillImage"/>
        <cc:license rdf:resource="http://creativecommons.org/licenses/publicdomain/"/>
        <dc:publisher>
          <cc:Agent rdf:about="http://openclipart.org/">
            <dc:title>Openclipart</dc:title>
          </cc:Agent>
        </dc:publisher>
      </cc:Work>
      <cc:License rdf:about="http://creativecommons.org/licenses/publicdomain/">
        <cc:permits rdf:resource="http://creativecommons.org/ns#Reproduction"/>
        <cc:permits rdf:resource="http://creativecommons.org/ns#Distribution"/>
        <cc:permits rdf:resource="http://creativecommons.org/ns#DerivativeWorks"/>
      </cc:License>
    </rdf:RDF>
  </metadata>
</svg>
